<?xml version="1.0" encoding="UTF-8" standalone="no"?>
<!-- Created with Inkscape (http://www.inkscape.org/) -->

<svg
   version="1.1"
   id="svg1"
   width="1024"
   height="1024"
   viewBox="0 0 1024 1024"
   xmlns="http://www.w3.org/2000/svg"
   xmlns:svg="http://www.w3.org/2000/svg">
  <defs
     id="defs1" />
  <g
     id="g1">
    <path
       style="fill:#000000"
       d="m 336.11338,871.30173 c -3.85,-0.95939 -9.15077,-2.70683 -11.77948,-3.8832 -2.62871,-1.17636 -7.51418,-4.05712 -10.85659,-6.40169 -3.34241,-2.34457 -8.44633,-7.11719 -11.34205,-10.60583 -2.89571,-3.48865 -6.67973,-9.24465 -8.40892,-12.79113 -1.7292,-3.54648 -3.84816,-9.03079 -4.7088,-12.18735 -1.0438,-3.82832 -1.85882,-13.56365 -2.44785,-29.23922 -0.48567,-12.925 -1.36687,-37.225 -1.95823,-54 -0.59135,-16.775 -3.29741,-85.85 -6.01348,-153.5 -2.71606,-67.65 -5.61012,-141 -6.43125,-163 -0.82113,-22 -1.76336,-45.05115 -2.09385,-51.22477 -0.59091,-11.03855 -0.55898,-11.26666 1.92436,-13.75 l 2.52523,-2.52523 H 518.4187 c 171.01526,0 244.81561,0.3205 246.97292,1.07254 1.92423,0.67079 3.41304,2.07545 3.97465,3.75 0.54537,1.62615 0.40616,13.67168 -0.35455,30.67746 -0.68888,15.4 -1.73265,40.375 -2.31949,55.5 -0.58684,15.125 -1.75627,45.5 -2.59873,67.5 -0.84247,22 -2.19112,56.2 -2.997,76 -0.80589,19.8 -2.38134,59.4 -3.50102,88 -1.11968,28.6 -2.88688,71.8 -3.92711,96 -1.68091,39.1048 -2.1336,44.77878 -4.06896,51 -1.19771,3.85 -3.50856,9.34678 -5.13524,12.21507 -1.62668,2.86829 -4.84607,7.46821 -7.15419,10.22206 -2.30813,2.75384 -6.71468,6.94861 -9.79233,9.3217 -3.07765,2.3731 -8.47765,5.71482 -12,7.42605 -3.52235,1.71123 -9.6431,3.83218 -13.60168,4.71322 -6.4584,1.43742 -25.24809,1.59434 -183,1.52828 -163.72526,-0.0685 -176.28348,-0.19345 -182.80259,-1.81796 z m 63,-88.00428 c 2.2,-1.01857 5.21363,-3.14619 6.69695,-4.72804 1.48333,-1.58186 3.39897,-4.55666 4.25698,-6.61069 1.39195,-3.33221 1.55917,-21.39288 1.5521,-167.62697 -0.007,-140.15671 -0.2167,-164.4841 -1.44946,-167.9781 -0.79284,-2.24714 -2.42054,-5.40991 -3.61711,-7.02836 -1.19658,-1.61845 -4.32086,-4.11024 -6.94286,-5.53731 -3.47722,-1.89254 -6.21896,-2.58873 -10.13193,-2.57271 -3.02515,0.0124 -7.1271,0.82252 -9.40604,1.8577 -2.22275,1.00966 -5.27691,3.3041 -6.78702,5.09876 -1.51011,1.79467 -3.40399,4.83866 -4.20863,6.76443 -1.26384,3.0248 -1.46298,25.88048 -1.46298,167.91139 0,145.35674 0.17742,164.83462 1.53094,168.07405 0.84202,2.01523 2.62119,5.09345 3.95372,6.84048 1.33252,1.74704 4.3561,4.1334 6.71906,5.30304 2.83639,1.40398 6.16519,2.11942 9.79628,2.10544 3.20488,-0.0123 7.16918,-0.79398 9.5,-1.87311 z m 132.7069,-1.6788 c 2.36121,-1.65778 5.4181,-5.01917 6.7931,-7.46974 l 2.5,-4.4556 v -166 -166 l -2.15842,-4 c -1.18713,-2.2 -3.43713,-5.21363 -5,-6.69695 -1.56287,-1.48333 -4.51463,-3.39583 -6.55946,-4.25 -2.04484,-0.85418 -5.77179,-1.55305 -8.28212,-1.55305 -2.51033,0 -6.23728,0.69887 -8.28212,1.55305 -2.04483,0.85417 -4.99659,2.76667 -6.55946,4.25 -1.56287,1.48332 -3.81287,4.49695 -5,6.69695 l -2.15842,4 v 165.5 165.5 l 2.15842,4 c 1.18713,2.2 3.43713,5.21268 5,6.69484 1.56287,1.48216 4.41658,3.40099 6.34158,4.26408 2.3481,1.05278 5.70734,1.47237 10.2069,1.27491 5.5668,-0.2443 7.43669,-0.80671 11,-3.30849 z m 128.32846,0.66763 c 3.749,-2.1504 5.79273,-4.2556 8,-8.24061 l 2.96464,-5.35236 V 603.16674 437.64017 l -2.55464,-4.96428 c -1.52658,-2.9665 -4.2409,-6.14943 -6.74482,-7.90924 -3.20389,-2.25178 -5.61181,-3.0478 -10.22985,-3.38184 -4.1789,-0.30228 -7.4122,0.0873 -10.49459,1.26448 -2.56318,0.97888 -5.89545,3.38428 -7.84727,5.66454 -1.86579,2.17976 -3.91129,5.85686 -4.54554,8.17134 -0.85469,3.11882 -1.07944,46.81093 -0.86825,168.78674 l 0.28496,164.57859 3.01544,4.87718 c 2.19531,3.55071 4.47017,5.63715 8.36419,7.67141 3.84598,2.00916 6.7917,2.79158 10.48456,2.78484 3.82157,-0.007 6.42435,-0.74849 10.17117,-2.89765 z M 227.62937,322.48651 c -2.07343,-2.63594 -2.12115,-3.42788 -1.82258,-30.25 0.29937,-26.89489 0.3642,-27.66028 2.75419,-32.51712 1.34619,-2.73566 4.27119,-6.79639 6.5,-9.02386 2.22882,-2.22747 6.3024,-5.1642 9.0524,-6.52608 l 5,-2.47614 67.25,-0.27708 67.25,-0.27708 0.0119,-26.22292 c 0.009,-19.7997 0.36988,-27.56827 1.47344,-31.71536 0.80387,-3.02084 2.93602,-8.42084 4.73813,-12 1.99897,-3.97013 5.81104,-9.04204 9.77656,-13.00756 3.575,-3.575 9.28372,-7.97355 12.68605,-9.77456 3.40232,-1.801 9.66181,-4.1635 13.90996,-5.25 7.39763,-1.89199 11.31843,-1.97471 92.81395,-1.95808 70.96395,0.0145 86.25213,0.26135 92.09004,1.48704 3.85,0.80831 10.17752,3.03308 14.06116,4.94393 4.74351,2.33392 9.23736,5.66118 13.69139,10.13716 3.95134,3.9708 8.08855,9.43807 10.23955,13.53143 1.98512,3.7777 4.25368,9.90931 5.04124,13.62581 1.01827,4.80519 1.43695,13.89747 1.4493,31.47356 l 0.0174,24.71629 66.75,0.28371 c 65.99838,0.28052 66.80265,0.30804 71.42567,2.4446 2.57162,1.18849 6.72425,4.0492 9.22806,6.35714 2.50382,2.30794 5.79975,6.73554 7.32435,9.83911 l 2.7718,5.64286 0.3076,27.69244 c 0.298,26.82911 0.2434,27.75658 -1.75,29.75 l -2.0576,2.05756 H 519.68596 229.75854 Z M 618.4445,220.44331 c -0.29629,-17.88998 -0.60431,-21.27658 -2.23476,-24.57045 -1.04011,-2.10124 -3.2773,-5.20664 -4.97154,-6.90088 -1.69424,-1.69424 -4.89042,-3.90266 -7.10263,-4.90759 -3.78872,-1.7211 -8.69482,-1.82716 -84.52219,-1.82716 -76.06715,0 -80.72334,0.10145 -84.55581,1.84221 -2.23069,1.01321 -5.64594,3.69992 -7.58944,5.97046 -1.9435,2.27054 -4.05589,5.87137 -4.69419,8.00185 -0.70981,2.36914 -1.16056,11.49921 -1.16056,23.50758 v 19.63398 h 98.58739 98.58738 z"
       id="path1" />
  </g>
</svg>
