<?xml version="1.0" encoding="UTF-8" standalone="no"?>
<!-- Created with Inkscape (http://www.inkscape.org/) -->

<svg
   version="1.1"
   id="svg1"
   width="1024"
   height="1024"
   viewBox="0 0 1024 1024"
   sodipodi:docname="ciak.svg"
   inkscape:version="1.4.2 (f4327f4, 2025-05-13)"
   xml:space="preserve"
   xmlns:inkscape="http://www.inkscape.org/namespaces/inkscape"
   xmlns:sodipodi="http://sodipodi.sourceforge.net/DTD/sodipodi-0.dtd"
   xmlns="http://www.w3.org/2000/svg"
   xmlns:svg="http://www.w3.org/2000/svg"><defs
     id="defs1" /><sodipodi:namedview
     id="namedview1"
     pagecolor="#505050"
     bordercolor="#ffffff"
     borderopacity="1"
     inkscape:showpageshadow="0"
     inkscape:pageopacity="0"
     inkscape:pagecheckerboard="1"
     inkscape:deskcolor="#505050"
     inkscape:zoom="0.78808594"
     inkscape:cx="511.36555"
     inkscape:cy="512"
     inkscape:window-width="1920"
     inkscape:window-height="1009"
     inkscape:window-x="-8"
     inkscape:window-y="-8"
     inkscape:window-maximized="1"
     inkscape:current-layer="g1" /><g
     inkscape:groupmode="layer"
     inkscape:label="Image"
     id="g1"><path
       style="fill:#000000"
       d="m 237.17499,928.52418 c -3.14139,-0.76164 -8.78727,-2.93366 -12.54639,-4.82672 -3.75912,-1.89307 -9.12981,-5.25606 -11.93486,-7.47333 -2.80505,-2.21727 -7.19119,-6.74894 -9.74698,-10.07037 -2.55579,-3.32144 -5.98472,-8.89785 -7.61983,-12.39202 -1.63512,-3.49417 -3.64061,-9.84257 -4.45663,-14.10756 -1.27685,-6.67345 -1.48369,-32.4708 -1.48369,-185.04424 V 517.32023 l -9.00462,-0.43052 c -6.98566,-0.33399 -9.60631,-0.87975 -11.68821,-2.43411 -1.47598,-1.10197 -3.6114,-3.24562 -4.74538,-4.76367 -2.01863,-2.70231 -2.07295,-4.10342 -2.59505,-66.93821 l -0.53326,-64.17813 -16.33557,-54.5 c -12.81455,-42.75294 -16.36383,-55.8306 -16.46674,-60.67325 -0.10308,-4.85136 0.31948,-6.77855 1.97336,-9 1.15749,-1.55471 3.4947,-3.6409 5.19379,-4.63597 1.69909,-0.99507 20.10205,-6.08324 40.89547,-11.30705 20.79341,-5.2238 58.95621,-14.91921 84.80621,-21.54535 25.85,-6.62614 59.825,-15.33232 75.5,-19.34706 15.675,-4.01475 36.375,-9.34109 46,-11.83632 9.625,-2.49522 43.15,-11.08383 74.5,-19.08579 31.35,-8.00196 72.525,-18.62541 91.5,-23.60766 18.975,-4.98225 55.65,-14.44539 81.5,-21.0292 25.85,-6.58381 77.21239,-19.61197 114.13865,-28.951462 43.8386,-11.08778 68.92633,-16.98089 72.28983,-16.98089 3.12683,0 6.64747,0.763341 8.9586,1.942394 2.09408,1.068316 4.52931,3.044156 5.41163,4.390746 0.88232,1.34659 4.75364,12.96002 8.60292,25.807612 3.84928,12.84759 11.54782,38.88425 17.10787,57.85925 5.56005,18.975 10.35047,36.75 10.64537,39.5 0.44548,4.1541 0.13938,5.57658 -1.80934,8.40805 -1.29004,1.87443 -3.47053,4.21155 -4.84553,5.1936 -1.38796,0.99132 -22.73907,6.89921 -48,13.28169 -25.025,6.32288 -79.475,20.07308 -121,30.55601 -41.525,10.48292 -93.95,23.78594 -116.5,29.56226 -22.55,5.77632 -79.25,20.2038 -126,32.06107 -46.75,11.85727 -95.575,24.25519 -108.5,27.55093 -12.925,3.29574 -29.6875,7.60943 -37.25,9.58598 l -13.75,3.59373 v 3.22834 c 0,2.83303 0.39251,3.30684 3.20546,3.86943 1.763,0.3526 132.64285,0.61832 290.84412,0.59049 175.927,-0.031 288.57304,0.31208 290.04454,0.88326 1.32323,0.51364 3.65224,2.25054 5.17558,3.8598 1.52333,1.60925 3.21083,4.46407 3.75,6.34403 0.58993,2.05699 0.9803,26.55396 0.9803,61.51744 v 58.09932 l -2.32377,4.39432 c -1.27808,2.41687 -3.82691,5.2722 -5.66408,6.34516 -2.33609,1.36435 -5.8416,2.08213 -11.66033,2.38753 l -8.32003,0.43669 -0.26933,180.12544 c -0.25324,169.36809 -0.37568,180.48376 -2.05022,186.12543 -0.97949,3.3 -3.15301,8.7 -4.83006,12 -1.67704,3.3 -4.6991,8.17071 -6.71567,10.82381 -2.01658,2.6531 -6.10395,6.83473 -9.08303,9.29251 -2.97909,2.45779 -8.68753,6.042 -12.68543,7.96491 -3.99791,1.92292 -10.33547,4.14597 -14.08348,4.94013 -5.85066,1.23967 -46.13724,1.43458 -284.81457,1.37796 -233.24899,-0.0553 -278.91943,-0.28886 -283.71162,-1.45073 z m 350.22722,-97.2834 c 1.91642,-1.00914 4.2712,-3.37164 5.23285,-5.25 0.96164,-1.87835 1.74914,-4.54721 1.75,-5.93079 8.5e-4,-1.38358 -0.82072,-4.04881 -1.82572,-5.92274 -1.00499,-1.87392 -3.36047,-4.2294 -5.23439,-5.23439 -3.25434,-1.74532 -9.82921,-1.82727 -146.60764,-1.82727 -92.06446,0 -144.13016,0.35346 -145.80391,0.98981 -1.43187,0.5444 -3.71117,2.18511 -5.0651,3.64603 -1.96905,2.12464 -2.46169,3.7123 -2.46169,7.93346 0,4.25894 0.51491,5.88918 2.66844,8.44851 1.46764,1.74419 3.60514,3.55019 4.75,4.01334 1.14486,0.46314 66.66358,0.8706 145.59716,0.90546 137.34417,0.0607 143.66544,-0.0155 147,-1.77142 z m 167.56128,-113.4005 c 2.82216,-3.07955 3.42312,-4.51444 3.42312,-8.17328 0,-3.26521 -0.65529,-5.21672 -2.47975,-7.38498 -1.36387,-1.62086 -3.72637,-3.46064 -5.25,-4.0884 -2.05415,-0.84635 -61.36558,-1.07375 -229.44698,-0.87971 l -226.67672,0.26168 -2.82259,2.10741 c -1.55243,1.15908 -3.4465,3.74667 -4.20905,5.75021 -1.22499,3.21855 -1.18256,4.17673 0.36435,8.22725 1.12836,2.95455 2.86538,5.26539 4.88578,6.49975 3.06776,1.87425 8.01885,1.90995 230.96184,1.66534 l 227.82687,-0.24996 z m -2.54415,-106.28162 c 1.61338,-0.83431 3.61603,-2.83696 4.45034,-4.45034 0.83431,-1.61337 1.51693,-4.80076 1.51693,-7.08307 0,-3.38589 -0.62579,-4.77545 -3.4,-7.54966 -2.49114,-2.49114 -4.29549,-3.40737 -6.75,-3.42757 -1.8425,-0.0152 -104.40905,-0.0869 -227.92566,-0.15952 -217.18291,-0.12761 -224.67918,-0.0708 -227.72078,1.72592 -1.84298,1.08867 -3.78645,3.46068 -4.69413,5.7292 -1.19745,2.99273 -1.32011,4.72135 -0.54045,7.61678 0.5547,2.06 2.0261,4.67137 3.26978,5.80304 1.24368,1.13167 2.93624,2.30434 3.76124,2.60592 0.825,0.30159 103.55985,0.58386 228.29966,0.62728 200.87167,0.0699 227.13501,-0.0945 229.73307,-1.43798 z M 396.09936,478.32559 c 5.56282,-7.5625 20.43338,-27.57557 33.04568,-44.47349 l 22.93147,-30.72349 -14.09495,-0.27651 c -7.75222,-0.15208 -30.06995,-0.13883 -49.59495,0.0294 l -35.5,0.30597 -32.5,43.47482 c -17.875,23.91115 -32.65,43.91097 -32.83333,44.44403 -0.21221,0.61704 17.6106,0.96922 49.04926,0.96922 h 49.3826 z m 216.37884,-30.75 c 18.05098,-24.2 32.83997,-44.225 32.86442,-44.5 0.0245,-0.275 -22.35245,-0.3794 -49.72646,-0.23201 -47.95346,0.2582 -49.81499,0.33855 -50.97775,2.20042 -0.66375,1.06283 -15.07349,20.51724 -32.02163,43.23201 -16.94815,22.71477 -31.16244,41.8663 -31.5873,42.55895 -0.61787,1.0073 9.17568,1.20746 48.92813,1 l 49.70062,-0.25937 z m 166.38988,35.25 c 3.81776,-5.0875 18.3525,-24.70715 32.29941,-43.59922 13.94692,-18.89207 25.55683,-34.86707 25.79979,-35.5 0.32963,-0.85869 -10.53876,-1.09926 -42.81946,-0.94778 -23.79366,0.11164 -46.00851,0.22414 -49.36632,0.25 l -6.10511,0.047 -4.05406,5.75 c -2.22974,3.1625 -17.08631,23.1875 -33.01459,44.5 l -28.96052,38.75 h 49.63974 49.63974 z M 238.53722,396.53994 c 2.53892,-0.8651 6.37051,-3.07452 8.51465,-4.90982 2.14415,-1.83531 5.23404,-5.74839 6.86644,-8.69573 2.56029,-4.62268 2.96483,-6.38906 2.94497,-12.8588 -0.0178,-5.80235 -0.52846,-8.45571 -2.25599,-11.7222 -1.22813,-2.3222 -3.65219,-5.8386 -5.3868,-7.81422 -1.73461,-1.97561 -5.44435,-4.75468 -8.24386,-6.17571 -3.35905,-1.70505 -7.32598,-2.74486 -11.66498,-3.05762 -4.33839,-0.31272 -8.42951,0.0652 -12.02685,1.11097 -3.11834,0.90652 -7.26252,3.13474 -9.68209,5.2058 -2.32661,1.99149 -5.31887,5.49561 -6.64947,7.78694 -1.33061,2.29132 -2.85613,6.61177 -3.39006,9.60099 -0.73271,4.10216 -0.61898,6.78557 0.46377,10.94256 0.78901,3.02918 2.35434,6.99584 3.47852,8.81481 1.12418,1.81896 4.02152,4.92766 6.43854,6.90823 2.41702,1.98056 6.99288,4.45661 10.16859,5.50233 3.88733,1.28004 7.4134,1.74332 10.79121,1.41783 2.75946,-0.2659 7.09449,-1.19126 9.63341,-2.05636 z m 194.6781,-100.61889 c 11.70912,-2.97506 12.23681,-3.21773 10.5,-4.82872 -1.00579,-0.93294 -10.12507,-9.08086 -20.26506,-18.10649 -10.13999,-9.02564 -27.07694,-24.12869 -37.63767,-33.56234 l -19.20131,-17.15208 -6.86234,1.81161 c -3.77428,0.99639 -24.63733,6.36803 -46.36233,11.93698 -21.725,5.56894 -39.84263,10.22387 -40.26141,10.34427 -0.41878,0.1204 12.85622,12.22229 29.5,26.89307 16.64378,14.67078 34.52546,30.46794 39.73708,35.1048 l 9.47566,8.43064 34.52434,-8.86963 c 18.98838,-4.8783 40.07225,-10.27925 46.85304,-12.00211 z m 143.71267,-36.7004 c 21.42724,-5.42022 43.15806,-10.8797 48.29071,-12.13219 7.4226,-1.8113 9.05953,-2.52258 8,-3.4762 -0.73265,-0.65942 -8.05585,-7.23743 -16.27377,-14.61781 -8.21793,-7.38037 -25.48188,-22.83678 -38.36434,-34.34758 l -23.42266,-20.92872 -18.13566,4.6889 c -9.97461,2.5789 -32.18776,8.17183 -49.36256,12.42872 -17.17479,4.2569 -31.21285,7.96482 -31.19568,8.23982 0.0172,0.275 9.03875,8.375 20.04796,18 11.0092,9.625 28.64726,25.23439 39.19568,34.68753 10.54842,9.45315 19.87256,17.21565 20.72032,17.25 0.84777,0.0344 19.07277,-4.37225 40.5,-9.79247 z m 194.41703,-49.25124 c 24.49788,-6.10839 44.89043,-11.31696 45.31678,-11.57458 0.42636,-0.25763 -1.58465,-2.57235 -4.4689,-5.14383 -2.88425,-2.57147 -19.65809,-17.68245 -37.27519,-33.57995 -17.61711,-15.8975 -33.04915,-29.81865 -34.29342,-30.93589 -2.10841,-1.89315 -2.61867,-1.94132 -7.5,-0.708 -2.88073,0.72784 -23.46268,6.00438 -45.73768,11.72563 -22.275,5.72126 -40.88592,10.51305 -41.35761,10.64842 -0.47168,0.13536 7.62832,7.71396 18,16.84133 10.37169,9.12737 28.30761,24.9702 39.85761,35.2063 11.55,10.2361 21.43129,18.61461 21.95841,18.61892 0.52713,0.004 21.00213,-4.98995 45.5,-11.09835 z"
       id="path1" /></g></svg>
