<?xml version="1.0" encoding="UTF-8" standalone="no"?>
<!-- Created with Inkscape (http://www.inkscape.org/) -->

<svg
   version="1.1"
   id="svg1"
   width="1024"
   height="1024"
   viewBox="0 0 1024 1024"
   sodipodi:docname="freccia.svg"
   inkscape:version="1.4.2 (f4327f4, 2025-05-13)"
   xml:space="preserve"
   xmlns:inkscape="http://www.inkscape.org/namespaces/inkscape"
   xmlns:sodipodi="http://sodipodi.sourceforge.net/DTD/sodipodi-0.dtd"
   xmlns="http://www.w3.org/2000/svg"
   xmlns:svg="http://www.w3.org/2000/svg"><defs
     id="defs1" /><sodipodi:namedview
     id="namedview1"
     pagecolor="#505050"
     bordercolor="#ffffff"
     borderopacity="1"
     inkscape:showpageshadow="0"
     inkscape:pageopacity="0"
     inkscape:pagecheckerboard="1"
     inkscape:deskcolor="#505050"
     inkscape:zoom="0.78808594"
     inkscape:cx="511.36555"
     inkscape:cy="512"
     inkscape:window-width="1920"
     inkscape:window-height="1009"
     inkscape:window-x="-8"
     inkscape:window-y="-8"
     inkscape:window-maximized="1"
     inkscape:current-layer="g1" /><g
     inkscape:groupmode="layer"
     inkscape:label="Image"
     id="g1"><path
       style="fill:#000000"
       d="m 558.81296,740.76401 c -2.23984,-1.03161 -5.70076,-3.778 -7.69094,-6.10308 -2.24959,-2.62813 -3.99144,-5.98242 -4.60425,-8.86642 -0.6278,-2.95455 -0.64554,-6.44226 -0.0489,-9.6052 0.51527,-2.73141 2.00605,-6.55641 3.31284,-8.5 1.30679,-1.94359 7.20427,-8.9338 13.10551,-15.5338 5.90123,-6.6 15.34028,-17.175 20.97565,-23.5 5.63537,-6.325 23.89094,-26.8 40.56793,-45.5 16.67699,-18.7 33.61417,-37.56233 37.63818,-41.91629 4.024,-4.35396 7.3163,-8.17896 7.3162,-8.5 -9e-5,-0.32104 -84.71259,-0.58371 -188.25,-0.58371 h -188.2498 l -5.25728,-2.37628 c -2.8915,-1.30695 -6.6603,-3.97422 -8.37509,-5.92727 -1.7148,-1.95305 -3.79197,-5.15872 -4.61593,-7.12372 -0.82395,-1.965 -1.52576,-6.29648 -1.55958,-9.62552 -0.0442,-4.34712 0.57894,-7.37569 2.21112,-10.74732 1.24992,-2.582 4.02961,-6.19849 6.17709,-8.03666 2.14749,-1.83816 5.64763,-3.86437 7.77811,-4.50267 2.88014,-0.86291 52.13897,-1.16056 192.06517,-1.16056 h 188.19158 l -13.8076,-15.28962 c -7.59417,-8.40929 -32.48259,-36.13633 -55.30759,-61.61563 -22.825,-25.47931 -43.84474,-49.0446 -46.71053,-52.36731 -2.86578,-3.32271 -5.97908,-7.65818 -6.91843,-9.63437 -0.93935,-1.97619 -1.90387,-5.62134 -2.14338,-8.10034 -0.23951,-2.47899 0.10322,-6.52899 0.76162,-9 0.83553,-3.13579 2.62028,-5.87165 5.9092,-9.05825 3.13757,-3.03998 6.2856,-5.00608 9.42111,-5.88397 2.80066,-0.78414 6.56963,-1.06341 9.30026,-0.68914 2.52518,0.34612 6.32429,1.60333 8.44244,2.7938 2.11816,1.19047 9.87449,8.73007 17.23629,16.75466 7.3618,8.02459 21.89377,23.83862 32.29326,35.14229 10.39949,11.30366 30.18183,32.67866 43.96077,47.5 13.77893,14.82133 35.93209,38.76 49.22924,53.19703 13.29715,14.43703 25.18393,28.16203 26.41507,30.5 1.67148,3.17417 2.22848,5.89721 2.19911,10.75085 -0.0254,4.19978 -0.66227,7.68862 -1.79964,9.85883 -0.96817,1.84735 -5.2403,7.02235 -9.49363,11.5 -4.25333,4.47764 -20.31769,21.86617 -35.69856,38.64117 -15.38088,16.775 -41.88683,45.8 -58.90212,64.5 -17.01529,18.7 -37.47656,41.13234 -45.46948,49.84963 -8.87287,9.67698 -16.0904,16.64809 -18.5326,17.89984 -2.45812,1.25991 -6.50555,2.18212 -10.5,2.39244 -4.8053,0.25302 -7.56177,-0.14678 -10.57242,-1.53341 z"
       id="path1" /></g></svg>
