<?xml version="1.0" encoding="UTF-8" standalone="no"?>
<!-- Created with Inkscape (http://www.inkscape.org/) -->

<svg
   version="1.1"
   id="svg1"
   width="1024"
   height="1024"
   viewBox="0 0 1024 1024"
   sodipodi:docname="libro.svg"
   inkscape:version="1.4.2 (f4327f4, 2025-05-13)"
   xml:space="preserve"
   xmlns:inkscape="http://www.inkscape.org/namespaces/inkscape"
   xmlns:sodipodi="http://sodipodi.sourceforge.net/DTD/sodipodi-0.dtd"
   xmlns="http://www.w3.org/2000/svg"
   xmlns:svg="http://www.w3.org/2000/svg"><defs
     id="defs1" /><sodipodi:namedview
     id="namedview1"
     pagecolor="#505050"
     bordercolor="#ffffff"
     borderopacity="1"
     inkscape:showpageshadow="0"
     inkscape:pageopacity="0"
     inkscape:pagecheckerboard="1"
     inkscape:deskcolor="#505050"
     inkscape:zoom="0.78808594"
     inkscape:cx="511.36555"
     inkscape:cy="512"
     inkscape:window-width="1920"
     inkscape:window-height="1009"
     inkscape:window-x="-8"
     inkscape:window-y="-8"
     inkscape:window-maximized="1"
     inkscape:current-layer="g1" /><g
     inkscape:groupmode="layer"
     inkscape:label="Image"
     id="g1"><path
       style="fill:#000000"
       d="m 494.19615,814.70679 c -2.88713,-0.81037 -7.16213,-2.44921 -9.5,-3.64187 -2.33787,-1.19266 -9.57135,-5.73307 -16.0744,-10.08981 -6.50305,-4.35673 -15.95022,-9.92973 -20.99371,-12.38445 -5.04349,-2.45472 -13.44781,-5.77163 -18.67627,-7.37091 -5.22846,-1.59928 -14.23129,-3.80613 -20.00629,-4.9041 -5.775,-1.09798 -15.45,-2.58745 -21.5,-3.30995 -7.55069,-0.90172 -24.95405,-1.31123 -55.5,-1.30597 -24.63532,0.004 -53.87435,0.58216 -65.5,1.29463 -11.55,0.70784 -29.325,1.96277 -39.5,2.78875 -10.175,0.82598 -27.5,2.40232 -38.5,3.50298 -11,1.10067 -29.66475,3.10478 -41.47722,4.45359 -11.81247,1.34881 -23.96247,2.44498 -27.00001,2.43593 -3.83624,-0.0114 -6.74429,-0.69978 -9.52277,-2.25411 -2.6356,-1.4744 -4.76748,-3.75822 -6.25,-6.69544 l -2.25,-4.45778 V 531.6294 c 0,-177.66161 0.2997,-242.0337 1.13852,-244.53811 0.62619,-1.86958 2.08869,-4.46972 3.25,-5.77811 1.16132,-1.30838 3.60508,-3.01491 5.43059,-3.7923 1.9908,-0.84776 11.59566,-1.99404 24,-2.86425 11.37449,-0.79796 23.76727,-1.56642 27.53951,-1.7077 l 6.85863,-0.25687 -0.15699,-23.24696 c -0.1354,-20.04995 0.0774,-23.74098 1.54766,-26.83923 0.93756,-1.97576 3.32182,-4.63598 5.29836,-5.91161 1.97654,-1.27562 4.94372,-2.57482 6.59372,-2.8871 1.65,-0.31228 13.35,-1.32991 26,-2.2614 15.70476,-1.15643 35.52877,-1.70829 62.5,-1.73986 24.21027,-0.0283 45.11268,0.44806 54,1.23073 7.975,0.70232 21.36714,2.16029 29.76031,3.23992 8.39317,1.07964 19.86817,2.87992 25.5,4.00062 5.63183,1.12071 14.51469,3.1205 19.73969,4.44398 5.225,1.32348 14,3.94174 19.5,5.81835 5.5,1.87662 13.6,4.84957 18,6.60656 4.4,1.75699 12.5,5.53988 18,8.40643 5.5,2.86655 14.68466,8.34365 20.41036,12.17132 5.72569,3.82768 14.13943,10.21961 18.6972,14.20428 l 8.28684,7.24486 6.3028,-5.52025 c 3.46654,-3.03614 11.2528,-8.95126 17.3028,-13.14471 6.05,-4.19346 16.4,-10.45556 23,-13.91579 6.6,-3.46023 17.38076,-8.36913 23.95724,-10.90866 6.57649,-2.53953 18.05149,-6.33883 25.5,-8.44287 7.44852,-2.10405 18.26776,-4.76875 24.04276,-5.92155 5.775,-1.1528 16.125,-2.9807 23,-4.062 6.875,-1.0813 20.375,-2.75925 30,-3.72878 13.65842,-1.37581 26.28074,-1.7516 57.5,-1.71188 26.45188,0.0337 48.29584,0.61767 64.49298,1.72426 21.33366,1.45752 25.06764,1.96218 28.94803,3.91236 2.45027,1.23144 5.2958,3.39881 6.32339,4.81638 1.0276,1.41756 2.24702,4.25631 2.70982,6.30833 0.46281,2.05201 0.59322,13.28877 0.2898,24.97058 l -0.55166,21.23963 24.39382,1.30165 c 13.4166,0.71591 26.56767,1.70207 29.22461,2.19147 2.65694,0.4894 6.15123,1.83005 7.76509,2.97922 1.61386,1.14917 3.63506,3.44452 4.49154,5.10079 1.39288,2.69352 1.61188,28.6253 2.07477,245.67116 l 0.51752,242.65977 -2.33986,4.45625 c -1.64468,3.13229 -3.64926,5.13772 -6.74714,6.75 -2.92952,1.52466 -6.13494,2.29375 -9.55986,2.29375 -2.83391,0 -14.12564,-0.90402 -25.09271,-2.00894 -10.96708,-1.10491 -23.31514,-2.44306 -27.44014,-2.97366 -4.125,-0.5306 -17.175,-1.87311 -29,-2.98336 -11.825,-1.11024 -30.275,-2.67072 -41,-3.46773 -10.725,-0.797 -31.425,-1.98604 -46,-2.64231 -16.02045,-0.72136 -40.1432,-0.96637 -61,-0.61959 -23.25957,0.38674 -38.23185,1.09539 -45.95408,2.17505 -6.29974,0.88077 -15.72424,2.52658 -20.94333,3.65734 -5.21909,1.13076 -13.33976,3.41478 -18.04593,5.07559 -4.70616,1.66082 -12.38166,4.94531 -17.05666,7.29887 -4.675,2.35355 -13.31522,7.71946 -19.20049,11.92423 -5.88527,4.20477 -13.76027,9.03533 -17.5,10.73458 -4.47858,2.03496 -8.84754,3.21387 -12.79951,3.45379 -3.40255,0.20657 -8.27249,-0.27359 -11.24933,-1.10913 z m -9.82427,-49.05578 c -3.20073,-3.64567 -9.03123,-9.6279 -12.95668,-13.29383 -3.92545,-3.66594 -9.57451,-8.52659 -12.55345,-10.80144 -2.97895,-2.27485 -9.69127,-6.58794 -14.91627,-9.58465 -5.225,-2.9967 -13.60155,-7.29519 -18.61456,-9.55219 -5.013,-2.25699 -13.788,-5.73951 -19.5,-7.73893 -5.71199,-1.99941 -16.23544,-5.14177 -23.38544,-6.98302 -7.15,-1.84124 -20.425,-4.49022 -29.5,-5.88662 -9.075,-1.3964 -22.35,-3.11745 -29.5,-3.82456 -8.18291,-0.80925 -26.33964,-1.24994 -49,-1.18928 -22.67921,0.0607 -44.3255,0.70554 -58.5,1.74269 -12.375,0.90549 -25.01673,1.64782 -28.09272,1.64961 -3.90609,0.002 -6.89849,-0.68724 -9.92255,-2.2864 -2.65965,-1.40645 -5.03859,-3.65541 -6.16724,-5.83026 -1.7646,-3.40032 -1.83682,-11.11487 -1.82263,-194.71033 l 0.0148,-191.16974 -4.75482,0.004 c -2.61516,0.002 -11.16732,0.29701 -19.00482,0.65555 l -14.25,0.6519 V 529.34795 751.1924 h 2.39159 c 1.31538,0 13.57788,-1.10902 27.25,-2.46449 13.67212,-1.35547 33.63341,-3.14898 44.35841,-3.98558 10.725,-0.8366 27.825,-2.00741 38,-2.6018 10.175,-0.59439 37.85,-1.33097 61.5,-1.63685 27.26241,-0.3526 50.68177,-0.13139 63.989,0.60442 11.54396,0.63831 25.94396,1.84644 32,2.68473 6.05605,0.83829 16.186,2.63684 22.511,3.99677 6.325,1.35994 17.35464,4.42807 24.51031,6.81807 7.15568,2.39 17.28068,6.40371 22.5,8.91936 5.21933,2.51565 11.48783,5.70884 13.93,7.09599 2.44218,1.38714 4.635,2.3274 4.87295,2.08945 0.23794,-0.23794 -2.18614,-3.41545 -5.38686,-7.06112 z m 38.61977,4.50818 c 1.5702,-1.11809 8.38966,-4.67933 15.15437,-7.91388 6.7647,-3.23455 17.08104,-7.47169 22.92521,-9.41586 5.84416,-1.94417 15.22986,-4.45784 20.8571,-5.58593 5.62724,-1.12809 15.24565,-2.70672 21.37424,-3.50807 6.1286,-0.80134 20.36791,-1.98811 31.64291,-2.63727 13.53462,-0.77924 35.78984,-0.97584 65.5,-0.57862 24.75,0.33091 56.025,1.29971 69.5,2.15289 13.475,0.85318 32.825,2.24353 43,3.08967 10.175,0.84614 25.25,2.20552 33.5,3.02084 8.25,0.81531 17.925,1.74675 21.5,2.06986 l 6.5,0.58747 -0.26097,-221.80175 c -0.14353,-121.99096 -0.36853,-221.90119 -0.5,-222.02273 -0.13147,-0.12155 -8.47212,-0.5499 -18.53477,-0.9519 L 836.854,305.933 l 0.14247,192.26149 c 0.1398,188.66782 0.10629,192.31042 -1.79285,194.87953 -1.06442,1.43992 -3.90807,3.71949 -6.31923,5.0657 l -4.38391,2.44767 -28.0275,-1.77844 c -15.41513,-0.97815 -39.0525,-2.02729 -52.5275,-2.33144 -14.57742,-0.32904 -32.19507,-0.0678 -43.5,0.64507 -10.45,0.65895 -24.4,1.85281 -31,2.65302 -6.6,0.80022 -17.175,2.36466 -23.5,3.47653 -6.325,1.11186 -17.65926,3.60301 -25.18723,5.53587 -7.52798,1.93286 -18.77798,5.44941 -25,7.81455 -6.22203,2.36514 -15.58777,6.44665 -20.81277,9.07001 -5.225,2.62337 -12.65,6.79819 -16.5,9.27738 -3.85,2.47919 -10.44005,7.37214 -14.64455,10.87321 -4.2045,3.50107 -11.07663,10.01391 -15.2714,14.47297 -4.19477,4.45906 -8.08305,8.95981 -8.64063,10.00166 -0.55759,1.04186 -0.72993,1.89428 -0.38298,1.89428 0.34695,0 1.91552,-0.91479 3.48573,-2.03287 z m 16.95383,-61.06944 c 5.775,-3.87384 16.8,-10.12651 24.5,-13.8948 7.7,-3.7683 18.725,-8.48769 24.5,-10.48754 5.775,-1.99985 16.35,-5.15521 23.5,-7.01191 7.15,-1.8567 17.725,-4.30104 23.5,-5.43186 5.775,-1.13082 17.475,-2.93107 26,-4.00055 8.525,-1.06949 23.375,-2.4204 33,-3.00203 9.625,-0.58163 23.35,-1.21574 30.5,-1.40914 7.15,-0.19341 24.7,-0.008 39,0.41155 14.3,0.41975 29.4875,1.08747 33.75,1.48382 l 7.75,0.72064 V 455.96809 245.46825 l -6.25,-0.61977 c -3.4375,-0.34087 -15.7,-1.13189 -27.25,-1.75782 -12.34747,-0.66914 -34.18483,-0.91213 -53,-0.58974 -17.6835,0.30299 -38.26348,1.22951 -46,2.07094 -7.7,0.83745 -18.5,2.23315 -24,3.10155 -5.5,0.86841 -15.4,2.73319 -22,4.14396 -6.6,1.41077 -19.22735,4.94059 -28.06077,7.84405 -8.83342,2.90346 -21.41949,7.8262 -27.96904,10.93943 -6.54955,3.11323 -16.89032,8.97822 -22.97949,13.03332 -6.08916,4.0551 -14.97738,10.90203 -19.75159,15.2154 l -8.68039,7.84249 -0.0294,208.34581 -0.0294,208.34581 4.75,-3.62528 c 2.6125,-1.99391 9.475,-6.7948 15.25,-10.66865 z m 26.24086,-82.89229 c -1.79253,-1.09291 -4.15335,-3.45373 -5.24627,-5.24626 -1.16669,-1.91353 -1.98866,-5.03434 -1.99086,-7.5588 -0.002,-2.36481 0.67079,-5.60405 1.49521,-7.1983 0.82443,-1.59426 2.98398,-4.03134 4.79901,-5.41573 1.81503,-1.38439 8.00301,-4.74585 13.75105,-7.4699 5.74805,-2.72405 15.176,-6.54762 20.951,-8.49681 5.775,-1.9492 15.9,-4.88298 22.5,-6.51953 6.6,-1.63654 16.78415,-3.88885 22.63145,-5.00513 5.8473,-1.11627 17.3223,-2.9212 25.5,-4.01095 8.1777,-1.08974 22.74355,-2.49252 32.36855,-3.11727 9.625,-0.62476 25.86155,-0.98535 36.08122,-0.80132 l 18.58123,0.3346 3.77488,2.88182 c 2.07618,1.58501 4.40213,4.38305 5.16877,6.21789 0.76664,1.83483 1.3939,4.93996 1.3939,6.90029 0,1.96033 -0.62726,5.06547 -1.3939,6.9003 -0.76664,1.83483 -3.09319,4.63288 -5.17011,6.21788 l -3.77621,2.88182 -27.57989,0.64485 c -15.16894,0.35467 -33.42989,1.16457 -40.57989,1.79977 -7.15,0.6352 -17.95,1.82102 -24,2.63515 -6.05,0.81412 -14.6,2.17906 -19,3.03318 -4.4,0.85413 -13.22376,2.85618 -19.60836,4.44901 -6.38459,1.59283 -16.73459,4.65046 -23,6.79472 -6.2654,2.14427 -15.06455,5.52872 -19.55365,7.521 -4.4891,1.99228 -9.6641,3.62064 -11.5,3.61858 -1.8359,-0.002 -4.80461,-0.89794 -6.59713,-1.99086 z m 1.0298,-86.9295 c -2.40525,-1.11444 -5.09923,-3.3864 -6.24627,-5.26776 -1.19079,-1.95313 -2.01845,-5.06208 -2.02066,-7.59026 -0.002,-2.35516 0.62636,-5.79015 1.39648,-7.6333 0.80974,-1.93798 3.37174,-4.70763 6.07535,-6.56776 2.57132,-1.76912 7.92077,-4.71616 11.88766,-6.54897 3.96689,-1.83282 13.09333,-5.34673 20.28099,-7.80869 7.18766,-2.46196 19.99561,-6.06848 28.46213,-8.01449 8.46651,-1.94601 21.69366,-4.43918 29.39366,-5.54039 7.7,-1.10121 19.625,-2.55805 26.5,-3.23744 6.875,-0.67938 26.225,-1.26484 43,-1.30104 28.76703,-0.0621 30.69292,0.0478 33.89547,1.9342 1.8675,1.1 4.30393,3.21884 5.41428,4.70853 1.22861,1.64835 2.19568,4.84126 2.47067,8.15721 0.36391,4.3883 0.004,6.24518 -1.84838,9.54138 -1.51902,2.70273 -3.6811,4.74075 -6.36614,6.00084 -3.65906,1.71721 -7.36799,1.96201 -37.0659,2.44653 -18.15,0.29612 -37.95,1.03208 -44,1.63547 -6.05,0.60339 -18.07542,2.18692 -26.72315,3.51896 -8.64773,1.33204 -20.51802,3.59963 -26.37843,5.0391 -5.8604,1.43946 -15.65999,4.34445 -21.77685,6.45552 -6.11687,2.11107 -14.56041,5.45041 -18.76342,7.42076 -4.20302,1.97034 -8.92802,3.81391 -10.5,4.09683 -1.72011,0.30956 -4.54218,-0.26589 -7.08749,-1.44523 z m 1.39246,-84.5809 c -2.08754,-0.71766 -4.64879,-2.07704 -5.69168,-3.02084 -1.04288,-0.9438 -2.4156,-3.28994 -3.05049,-5.21366 -0.63488,-1.92371 -0.93673,-5.42819 -0.67077,-7.78774 0.26595,-2.35955 1.44492,-5.6402 2.61993,-7.29035 1.33487,-1.87465 5.92516,-4.94643 12.23516,-8.18765 5.55432,-2.85307 15.0395,-6.94985 21.07817,-9.10396 6.03867,-2.15412 17.17641,-5.48811 24.75053,-7.40888 7.57411,-1.92076 20.24997,-4.58394 28.16857,-5.91817 7.9186,-1.33422 21.82246,-3.22061 30.89746,-4.19196 11.95199,-1.27929 25.09181,-1.78066 47.67076,-1.81894 29.96412,-0.0508 31.2779,0.027 33.93821,2.00894 1.5221,1.13398 3.69525,3.30448 4.82924,4.82333 1.53303,2.05333 2.06179,4.26267 2.06179,8.61488 0,4.35222 -0.52876,6.56155 -2.06179,8.61488 -1.13399,1.51885 -3.30348,3.68935 -4.82109,4.82333 -2.60311,1.94508 -4.55252,2.09868 -34.43821,2.71348 -17.4234,0.35843 -36.17891,1.15956 -41.67891,1.78029 -5.5,0.62073 -14.95,1.82437 -21,2.67475 -6.05,0.85038 -16.4,2.66445 -23,4.03126 -6.6,1.36681 -15.15,3.38414 -19,4.48296 -3.85,1.09882 -11.275,3.3867 -16.5,5.08419 -5.225,1.69749 -13.11306,4.74574 -17.52903,6.7739 -4.41596,2.02816 -9.60026,3.94254 -11.52068,4.25418 -1.92041,0.31164 -5.19964,-0.0206 -7.28717,-0.73822 z m -0.66312,-86.20123 c -0.825,-0.30158 -2.55526,-1.50355 -3.84502,-2.67105 -1.28976,-1.16749 -2.97726,-3.33787 -3.75,-4.82306 -0.77274,-1.48518 -1.40498,-4.56718 -1.40498,-6.84887 0,-2.28169 0.73312,-5.69347 1.62916,-7.58174 1.13781,-2.39775 3.65439,-4.63637 8.34415,-7.4225 3.69324,-2.19411 11.17261,-5.81644 16.62083,-8.04962 5.44822,-2.23317 15.08086,-5.55324 21.40586,-7.37792 6.325,-1.82469 16.675,-4.47539 23,-5.89046 6.325,-1.41506 17.575,-3.46023 25,-4.54482 7.425,-1.08458 20.89682,-2.67212 29.93738,-3.52785 10.29249,-0.97423 26.77947,-1.55588 44.10212,-1.55588 27.04315,0 27.73901,0.0506 30.97066,2.25 1.81827,1.2375 4.24732,3.5205 5.39789,5.07333 1.55315,2.09617 2.09195,4.30544 2.09195,8.57784 0,4.72816 -0.48742,6.39355 -2.7328,9.3374 -1.65333,2.16762 -4.41836,4.18945 -7,5.11848 -3.38374,1.21769 -10.99589,1.63543 -36.7672,2.01775 -20.40433,0.3027 -37.52436,1.07696 -46,2.08036 -7.425,0.87902 -17.99446,2.3093 -23.48769,3.17839 -5.49322,0.86909 -16.06822,3.0792 -23.5,4.91136 -7.43177,1.83216 -18.74986,5.14351 -25.1513,7.35856 -6.40144,2.21505 -14.98993,5.61793 -19.08554,7.56195 -4.31323,2.04732 -8.88328,3.50136 -10.86102,3.45563 -1.87795,-0.0434 -4.08945,-0.32569 -4.91445,-0.62728 z m -80,145.797 V 307.37359 l -5.75,-5.51133 c -3.1625,-3.03124 -7.55,-6.96059 -9.75,-8.73189 -2.2,-1.77131 -8.33383,-6.08051 -13.63072,-9.576 -5.29689,-3.4955 -15.64689,-9.25604 -23,-12.80122 -7.35311,-3.54518 -18.09428,-8.01336 -23.86928,-9.9293 -5.775,-1.91594 -14.775,-4.62189 -20,-6.01323 -5.225,-1.39133 -14.21215,-3.45992 -19.97144,-4.59686 -5.7593,-1.13693 -17.6843,-2.94322 -26.5,-4.01396 -8.81571,-1.07075 -23.22088,-2.41052 -32.0115,-2.97727 -8.79061,-0.56676 -26.34061,-1.02564 -39,-1.01973 -12.65938,0.006 -34.22172,0.67306 -47.91629,1.48256 -13.69458,0.80951 -25.08836,1.66095 -25.3195,1.8921 -0.23115,0.23115 -0.38788,94.81511 -0.34829,210.18658 0.0396,115.37148 0.24661,209.94095 0.46005,210.15439 0.21344,0.21344 7.74982,-0.0685 16.74752,-0.62652 8.99769,-0.55802 24.90945,-1.24154 35.35945,-1.51894 10.45,-0.27739 29.125,-0.0895 41.5,0.41758 12.375,0.50707 29.925,1.6195 39,2.47207 9.075,0.85257 23.34341,2.68761 31.70759,4.07787 8.36418,1.39025 21.41418,4.0551 29,5.92188 7.58582,1.86678 18.96741,5.23309 25.29241,7.48069 6.325,2.2476 18.25,7.41828 26.5,11.49039 8.25,4.07212 19.5,10.3961 25,14.05329 5.5,3.65719 11.11477,7.74201 12.47727,9.07738 1.3625,1.33537 2.825,2.42794 3.25,2.42794 0.425,0 0.77273,-93.10915 0.77273,-206.90923 z m -70.75845,108.32123 c -7.29215,-3.0046 -18.54215,-6.98113 -25,-8.83675 -6.45786,-1.85562 -17.1359,-4.58121 -23.729,-6.05687 -6.59309,-1.47566 -17.84309,-3.5262 -25,-4.55675 -7.1569,-1.03055 -18.63755,-2.39001 -25.51255,-3.02103 -6.875,-0.63101 -25.18032,-1.43828 -40.67847,-1.79394 -26.34708,-0.60463 -28.35783,-0.78066 -30.93821,-2.70845 -1.51786,-1.13398 -3.67925,-3.29335 -4.80308,-4.7986 -1.54338,-2.0672 -2.04784,-4.27237 -2.06179,-9.01279 -0.0159,-5.39041 0.38818,-6.80957 2.86337,-10.0575 1.585,-2.07984 4.38305,-4.40878 6.21788,-5.17542 2.34848,-0.98126 7.71203,-1.3896 18.11818,-1.37938 8.13016,0.008 22.65712,0.46585 32.28212,1.01747 9.625,0.55163 24.7,1.90525 33.5,3.00806 8.8,1.1028 21.4,2.91596 28,4.02924 6.6,1.11328 18.18502,3.57461 25.7445,5.46963 7.55948,1.89501 19.48448,5.5256 26.5,8.06796 7.01552,2.54236 15.9055,6.19496 19.7555,8.11688 3.85,1.92192 8.51024,4.62963 10.3561,6.01714 1.84586,1.38751 3.98336,4.02397 4.75,5.85881 0.76664,1.83483 1.38649,4.81301 1.37745,6.61817 -0.009,1.80517 -1.02155,5.03528 -2.25,7.17802 -1.22846,2.14275 -3.80153,4.73025 -5.71795,5.75 -1.91642,1.01976 -5.06642,1.82595 -7,1.79155 -1.93358,-0.0344 -9.48191,-2.52086 -16.77405,-5.52545 z m 12.75845,-82.08208 c -0.825,-0.33079 -6,-2.49953 -11.5,-4.81943 -5.5,-2.3199 -13.6,-5.3944 -18,-6.83222 -4.4,-1.43782 -12.5,-3.77013 -18,-5.18292 -5.5,-1.41278 -16.36387,-3.66408 -24.14194,-5.00287 -7.77806,-1.3388 -21.05306,-3.16268 -29.5,-4.05307 -8.44693,-0.89039 -29.83859,-1.91601 -47.53701,-2.27915 -30.33648,-0.62245 -32.34048,-0.77812 -35,-2.7188 -1.55158,-1.1322 -3.83355,-4.04005 -5.07105,-6.46189 -1.2375,-2.42184 -2.25,-5.78765 -2.25,-7.47957 0,-1.69192 1.0125,-5.08407 2.25,-7.53811 1.64369,-3.25954 3.45234,-5.06819 6.71189,-6.71189 4.17413,-2.10489 5.72192,-2.2497 24,-2.24535 10.74596,0.003 26.96311,0.46858 36.03811,1.03561 9.075,0.56703 22.35,1.70297 29.5,2.52431 7.15,0.82133 18.4,2.40658 25,3.52277 6.6,1.11618 18.12106,3.56719 25.60236,5.44668 7.4813,1.87948 19.1813,5.46725 26,7.9728 6.8187,2.50556 16.44073,6.69225 21.3823,9.30375 7.13082,3.76847 9.46071,5.56745 11.29185,8.71881 1.78319,3.06884 2.21584,5.06633 1.90497,8.79511 -0.22234,2.66697 -1.2749,5.99336 -2.35364,7.43822 -1.07328,1.43754 -3.04862,3.4165 -4.38963,4.39769 -1.34102,0.98118 -4.23821,2.00604 -6.43821,2.27746 -2.2,0.27142 -4.675,0.22285 -5.5,-0.10794 z m -6.5,-88.37659 c -3.3,-1.58127 -12.75,-5.10578 -21,-7.83225 -8.25,-2.72646 -20.175,-6.10462 -26.5,-7.50703 -6.325,-1.4024 -17.125,-3.45964 -24,-4.57164 -6.875,-1.11199 -19.025,-2.73496 -27,-3.60659 -7.975,-0.87163 -28.30538,-1.88877 -45.17861,-2.2603 -28.85247,-0.63531 -30.84286,-0.79824 -33.43821,-2.73731 -1.51778,-1.13398 -3.63775,-3.23796 -4.71103,-4.6755 -1.07328,-1.43755 -2.14301,-4.78475 -2.37716,-7.43822 -0.32546,-3.68805 0.11966,-5.86706 1.88963,-9.2505 1.39217,-2.66122 3.71093,-5.18792 5.81538,-6.33687 3.29106,-1.79679 5.26104,-1.87817 33,-1.36314 16.225,0.30125 34.9,1.02948 41.5,1.61828 6.6,0.5888 17.4,1.7485 24,2.5771 6.6,0.82861 19.65,3.05708 29,4.95216 9.35,1.89507 23.3,5.50801 31,8.02874 7.7,2.52073 18.95,6.94941 25,9.8415 7.41066,3.54254 12.04439,6.45052 14.20067,8.91192 1.76037,2.00946 3.5061,5.28159 3.87939,7.2714 0.37335,1.99014 0.16503,5.33237 -0.46303,7.42864 -0.63224,2.11021 -2.71364,5.19094 -4.66419,6.90354 -3.01813,2.64995 -4.2691,3.08046 -8.73764,3.00692 -3.54954,-0.0584 -7.13152,-1.00406 -11.2152,-2.96085 z m -2,-87.09665 c -4.95,-2.25335 -13.725,-5.64925 -19.5,-7.54645 -5.775,-1.8972 -15.74814,-4.7338 -22.16254,-6.30356 -6.41439,-1.56976 -17.21439,-3.76902 -24,-4.88724 -6.7856,-1.11822 -18.86246,-2.7835 -26.83746,-3.70062 -8.80423,-1.01248 -27.33682,-1.91325 -47.1793,-2.29315 -30.87316,-0.59108 -32.8352,-0.73943 -35.5,-2.6842 -1.55139,-1.1322 -3.8332,-4.04005 -5.0707,-6.46189 -1.2375,-2.42184 -2.25,-5.74092 -2.25,-7.37573 0,-1.63482 0.94742,-4.92952 2.10539,-7.32156 1.48465,-3.06687 3.31307,-4.96528 6.20147,-6.43883 3.97383,-2.0273 5.05248,-2.07348 36.1446,-1.54774 18.97635,0.32087 37.9629,1.19942 46.54854,2.15389 7.975,0.88659 21.41021,2.72853 29.85603,4.09319 8.44581,1.36467 20.76184,3.84597 27.36895,5.51401 6.60711,1.66804 16.79689,4.62939 22.64397,6.58077 5.84708,1.95138 15.58301,5.8974 21.63541,8.76893 7.03012,3.3354 11.98159,6.38232 13.71021,8.43667 1.48822,1.76864 2.99883,4.77746 3.35693,6.68627 0.35809,1.90881 0.36417,4.99991 0.0135,6.86911 -0.35067,1.86921 -1.56548,4.5782 -2.69959,6.01998 -1.13411,1.44179 -3.34994,3.28744 -4.92406,4.10145 -1.57412,0.81401 -4.57189,1.4696 -6.6617,1.45686 -2.27565,-0.0139 -7.4095,-1.66644 -12.79966,-4.12016 z"
       id="path1" /></g></svg>
