<?xml version="1.0" encoding="UTF-8" standalone="no"?>
<!-- Created with Inkscape (http://www.inkscape.org/) -->

<svg
   version="1.1"
   id="svg1"
   width="1024"
   height="1024"
   viewBox="0 0 1024 1024"
   sodipodi:docname="maschere.svg"
   inkscape:version="1.4.2 (f4327f4, 2025-05-13)"
   xml:space="preserve"
   xmlns:inkscape="http://www.inkscape.org/namespaces/inkscape"
   xmlns:sodipodi="http://sodipodi.sourceforge.net/DTD/sodipodi-0.dtd"
   xmlns="http://www.w3.org/2000/svg"
   xmlns:svg="http://www.w3.org/2000/svg"><defs
     id="defs1" /><sodipodi:namedview
     id="namedview1"
     pagecolor="#505050"
     bordercolor="#ffffff"
     borderopacity="1"
     inkscape:showpageshadow="0"
     inkscape:pageopacity="0"
     inkscape:pagecheckerboard="1"
     inkscape:deskcolor="#505050"
     inkscape:zoom="0.78808594"
     inkscape:cx="511.36555"
     inkscape:cy="512"
     inkscape:window-width="1920"
     inkscape:window-height="1009"
     inkscape:window-x="-8"
     inkscape:window-y="-8"
     inkscape:window-maximized="1"
     inkscape:current-layer="g1" /><g
     inkscape:groupmode="layer"
     inkscape:label="Image"
     id="g1"><path
       style="fill:#000000"
       d="m 650.30419,816.24838 c -5.06792,-1.05055 -14.51792,-3.50736 -21,-5.45958 -6.48208,-1.95221 -18.0856,-6.05568 -25.7856,-9.11881 -7.7,-3.06313 -19.29121,-8.21812 -25.75825,-11.45554 -6.46704,-3.23742 -16.29977,-8.58289 -21.85052,-11.87882 -5.55074,-3.29592 -13.98452,-8.78175 -18.74174,-12.19072 -4.75722,-3.40897 -13.59949,-10.32488 -19.64949,-15.36868 -6.05,-5.0438 -15.81395,-14.15483 -21.69767,-20.24672 -5.88371,-6.09189 -13.49673,-14.58649 -16.91781,-18.87688 -3.42108,-4.29039 -9.49542,-12.76875 -13.49853,-18.84081 -4.00311,-6.07205 -9.61531,-15.52205 -12.47156,-21 -2.85625,-5.47794 -5.55152,-9.85705 -5.98948,-9.73134 -0.43796,0.1257 -4.00416,2.30372 -7.9249,4.84003 -3.92074,2.53631 -12.16219,7.00756 -18.31433,9.9361 -6.15215,2.92854 -15.68572,6.99578 -21.18572,9.0383 -5.5,2.04253 -16.76605,5.42268 -25.03566,7.51144 -8.26961,2.08877 -17.71961,4.09453 -21,4.45726 -4.33065,0.47886 -8.84039,0.0726 -16.46434,-1.48304 -5.775,-1.1784 -15.225,-3.50781 -21,-5.17647 -5.775,-1.66867 -16.125,-5.30644 -23,-8.08395 -6.875,-2.7775 -16.91986,-7.25695 -22.3219,-9.95432 -5.40205,-2.69737 -14.51424,-7.77716 -20.24932,-11.28842 -5.73508,-3.51126 -14.81523,-9.67764 -20.1781,-13.70308 -5.36287,-4.02543 -14.86919,-12.26974 -21.12514,-18.32069 -6.25596,-6.05094 -14.84543,-15.05172 -19.08771,-20.00172 -4.24229,-4.95 -10.2339,-12.42653 -13.3147,-16.6145 -3.0808,-4.18798 -8.17619,-11.83798 -11.32309,-17 -3.14691,-5.16203 -8.31005,-14.7855 -11.47366,-21.3855 -3.1636,-6.6 -7.33319,-16.56108 -9.26574,-22.13574 -1.93254,-5.57465 -4.88515,-15.69965 -6.56135,-22.5 -1.67619,-6.80034 -3.84675,-17.53926 -4.82346,-23.86426 -1.6303,-10.55759 -1.77583,-21.7436 -1.77583,-136.5 v -125 l 2.16237,-4 c 1.18931,-2.2 3.66431,-5.41212 5.5,-7.13805 1.8357,-1.72592 4.82432,-3.88749 6.64139,-4.80348 1.81707,-0.91599 5.41707,-1.91069 8,-2.21045 3.41537,-0.39636 8.92377,0.45367 20.19624,3.11659 8.525,2.01388 22.80423,5.20451 31.73162,7.0903 8.9274,1.88579 23.632,4.76536 32.67691,6.39905 9.0449,1.63369 25.14067,4.09875 35.76837,5.47789 10.62771,1.37915 24.9481,2.9755 31.8231,3.54743 6.875,0.57194 20.825,1.46067 31,1.97495 10.175,0.51429 23.675,0.72569 30,0.46978 6.325,-0.25591 18.925,-0.92559 28,-1.48817 9.075,-0.56258 25.725,-2.16326 37,-3.55707 11.275,-1.39381 28.825,-4.03128 39,-5.86106 10.175,-1.82978 25.7,-4.94201 34.5,-6.91606 8.8,-1.97406 20.05,-4.72171 25,-6.1059 4.95,-1.38419 11.56842,-3.03787 14.7076,-3.67485 4.38168,-0.8891 6.9619,-0.87744 11.107,0.0502 2.96967,0.66459 7.23898,2.56118 9.48735,4.21465 2.64687,1.94652 5.16492,5.16151 7.143,9.12001 l 3.05505,6.11369 v 54.25238 54.25238 l 3.75,0.5776 c 2.0625,0.31768 9.15,1.24208 15.75,2.05421 6.6,0.81214 18.75,2.03698 27,2.72187 8.25,0.68488 28.725,1.24075 45.5,1.23525 16.775,-0.005 37.25,-0.57392 45.5,-1.26317 8.25,-0.68925 23.775,-2.36224 34.5,-3.71777 10.725,-1.35553 29.175,-4.27829 41,-6.49502 11.825,-2.21672 30.725,-6.24245 42,-8.94604 11.275,-2.7036 24.7512,-6.05762 29.9472,-7.45338 5.196,-1.39576 11.2187,-2.53775 13.384,-2.53775 2.1652,0 5.789,0.55305 8.0528,1.22901 2.5121,0.75011 6.1282,3.18549 9.2799,6.25 4.014,3.90287 5.5245,6.27256 6.7832,10.64124 1.4622,5.07469 1.5871,17.79104 1.2865,131 -0.3017,113.62393 -0.4958,126.31737 -2.0706,135.37975 -0.9558,5.5 -2.4058,12.925 -3.2223,16.5 -0.8165,3.575 -2.6311,10.43105 -4.0324,15.23567 -1.4014,4.80462 -4.3437,13.35462 -6.5386,19 -2.1948,5.64538 -6.8961,15.83997 -10.4473,22.65464 -3.5513,6.81467 -9.2961,16.71467 -12.7663,22 -3.4703,5.28533 -10.038,14.33469 -14.595,20.10969 -4.5571,5.775 -15.3438,17.475 -23.9706,26 -9.1665,9.05825 -20.6526,19.18244 -27.6378,24.36062 -6.574,4.87334 -16.9027,11.98001 -22.9527,15.7926 -6.05,3.81259 -18.2,10.47291 -27,14.80071 -8.8,4.32779 -21.46054,9.89884 -28.13453,12.3801 -6.674,2.48125 -17.024,5.90001 -23,7.59723 -5.97601,1.69722 -14.01547,3.74919 -17.86547,4.55994 -3.85,0.81074 -9.025,1.43836 -11.5,1.39471 -2.475,-0.0436 -8.64648,-0.9389 -13.7144,-1.98945 z m 26.72869,-30.33872 c 5.23286,-1.33321 12.88286,-3.52843 17,-4.87825 4.11714,-1.34983 11.76071,-4.14174 16.98571,-6.20424 5.225,-2.0625 15.35,-6.6678 22.5,-10.234 7.15,-3.5662 16.375,-8.52089 20.5,-11.01041 4.125,-2.48953 10.2,-6.33772 13.5,-8.55154 3.3,-2.21381 11.19797,-8.18022 17.551,-13.25867 6.3531,-5.07846 16.3583,-14.2503 22.2338,-20.38188 5.8756,-6.13157 14.6432,-16.41117 19.4836,-22.84353 4.8404,-6.43237 11.0978,-15.52022 13.9053,-20.19522 2.8075,-4.675 7.1228,-12.55 9.5895,-17.5 2.4667,-4.95 6.1568,-13.47532 8.2003,-18.94515 2.0435,-5.46984 5.0025,-14.91984 6.5755,-21 1.5731,-6.08017 3.6448,-15.77985 4.6038,-21.55485 1.5738,-9.47774 1.7782,-22.06128 2.0993,-129.25 0.1957,-65.3125 0,-118.74441 -0.4431,-118.73758 -0.4395,0.007 -4.849,1.14837 -9.799,2.53675 -4.95,1.38838 -15.3,4.05753 -23,5.93144 -7.7,1.87391 -18.275,4.35848 -23.4999,5.52127 -5.2249,1.16279 -13.9999,2.96522 -19.5,4.00541 -5.5001,1.04018 -14.2751,2.58946 -19.5001,3.44285 -5.225,0.85338 -16.475,2.43065 -25,3.50505 -8.525,1.0744 -21.575,2.52738 -29,3.22884 -8.37759,0.79145 -29.24666,1.28308 -55,1.29567 -26.6232,0.013 -46.33944,-0.44581 -55,-1.27995 -7.425,-0.71514 -22.275,-2.41015 -33,-3.76668 -10.725,-1.35654 -27.375,-3.83501 -37,-5.50771 -9.625,-1.67271 -25.82868,-4.77909 -36.00818,-6.90307 -10.17949,-2.12398 -25.83646,-5.6979 -34.79325,-7.94204 -8.95679,-2.24414 -16.71561,-4.08025 -17.24182,-4.08025 -0.6033,0 -0.95644,41.28421 -0.95591,111.75 5.1e-4,68.55204 0.39737,116.00215 1.02664,122.75 0.5642,6.05 1.69739,14.6 2.51821,19 0.82082,4.4 2.63655,12.21255 4.03497,17.36123 1.39842,5.14868 3.69668,12.57368 5.10724,16.5 1.41056,3.92632 4.51724,11.4944 6.90373,16.81794 2.38648,5.32354 7.26748,14.61258 10.84666,20.64229 3.57917,6.02972 9.9497,15.62409 14.15673,21.32083 4.26964,5.78152 14.33288,17.01375 22.77706,25.42295 8.32036,8.28589 18.72792,17.77543 23.12792,21.08788 4.4,3.31245 10.925,8.05044 14.5,10.52886 3.575,2.47842 10.96091,7.07318 16.41313,10.21059 5.45223,3.13741 15.57723,8.32361 22.5,11.52489 6.92278,3.20129 18.3968,7.92465 25.49782,10.49636 7.10102,2.57172 18.57602,6.19863 25.5,8.05981 6.92398,1.86119 14.16405,3.41191 16.08905,3.44605 1.925,0.0341 7.78143,-1.02873 13.01429,-2.36194 z M 572.05077,671.56118 c -1.9073,-1.05168 -4.3823,-3.13841 -5.5,-4.63718 -1.49828,-2.0091 -2.024,-4.22052 -2.00106,-8.41731 0.0255,-4.66945 0.71535,-6.94674 3.83892,-12.67353 2.09428,-3.83968 6.29569,-10.25059 9.33645,-14.24647 3.04077,-3.99587 8.73826,-10.25303 12.66109,-13.9048 3.92283,-3.65177 11.18242,-9.32654 16.13242,-12.61061 4.95,-3.28407 11.925,-7.2976 15.5,-8.91895 3.575,-1.62135 10.14872,-4.00665 14.60826,-5.30067 4.45954,-1.29401 12.60709,-2.87577 18.10566,-3.51501 7.30159,-0.84886 12.80026,-0.87691 20.39174,-0.10405 5.71689,0.58202 13.54434,1.90106 17.39434,2.93119 3.85,1.03013 10.43472,3.3139 14.63271,5.07504 4.19799,1.76114 10.27299,4.78683 13.5,6.72375 3.22701,1.93692 9.10507,5.99562 13.06235,9.01934 3.95728,3.02372 9.89939,8.38862 13.2047,11.92199 3.3053,3.53338 7.80734,9.07157 10.00454,12.30709 2.1972,3.23552 5.44231,8.73106 7.21136,12.21232 1.76905,3.48126 3.39178,8.37685 3.60606,10.87908 0.28712,3.35262 -0.14879,5.40694 -1.65691,7.80866 -1.12559,1.79253 -3.51314,4.15334 -5.30567,5.24626 -1.79253,1.09292 -4.88009,1.98881 -6.86126,1.99086 -2.09276,0.002 -5.01155,-0.94608 -6.96576,-2.26302 -1.92355,-1.29628 -5.09084,-5.29623 -7.39788,-9.34275 -2.21883,-3.89179 -5.69037,-9.30181 -7.71453,-12.02225 -2.02416,-2.72045 -6.07416,-7.18823 -9,-9.9284 -2.92584,-2.74017 -7.56971,-6.60538 -10.31971,-8.58936 -2.75,-1.98398 -7.71586,-4.96966 -11.03524,-6.63485 -3.31939,-1.66518 -9.39439,-4.08241 -13.5,-5.37162 -6.46116,-2.02887 -9.48144,-2.34104 -22.46476,-2.32189 -14.19154,0.0209 -15.46858,0.18863 -23.69391,3.11154 -4.78165,1.69918 -12.20665,5.25141 -16.5,7.89385 -4.77205,2.93706 -11.49852,8.5348 -17.30609,14.40204 -7.1308,7.20408 -10.62225,11.69237 -14,17.99717 -2.475,4.61976 -5.68609,9.27563 -7.13576,10.34638 -1.44967,1.07075 -4.59967,2.14966 -7,2.39757 -3.09001,0.31914 -5.37674,-0.10755 -7.83206,-1.46141 z M 562.9374,529.51865 c -3.61965,-0.94489 -9.17745,-3.28145 -12.35067,-5.19236 -3.17322,-1.9109 -8.31168,-6.1833 -11.41881,-9.4942 -3.10713,-3.31091 -7.0816,-8.93591 -8.83214,-12.5 -1.75055,-3.5641 -3.72044,-9.58194 -4.37753,-13.373 -0.65709,-3.79106 -0.92736,-9.41606 -0.60058,-12.5 0.32677,-3.08394 1.33745,-7.77692 2.24595,-10.42884 1.65072,-4.81846 1.65011,-4.82346 -0.91356,-7.5 -1.41096,-1.47308 -3.29415,-4.42295 -4.18488,-6.55526 -1.08605,-2.59989 -1.4056,-5.14299 -0.97012,-7.72056 0.35716,-2.114 1.5518,-4.99087 2.65475,-6.39305 1.10295,-1.40218 3.29329,-3.21543 4.86742,-4.02944 1.57412,-0.81401 4.79689,-1.47765 7.1617,-1.47476 2.42585,0.003 5.42815,0.76563 6.88911,1.75 1.4242,0.95961 5.9242,3.98186 10,6.71612 4.0758,2.73425 12.37418,7.49342 18.44085,10.57592 6.06666,3.08251 15.06666,7.0655 20,8.85109 4.93333,1.7856 13.4697,4.37895 18.9697,5.76302 5.5,1.38406 11.43057,3.39342 13.17905,4.46524 1.74847,1.07182 4.11097,3.87387 5.25,6.22678 1.13902,2.35291 2.07095,5.2754 2.07095,6.49441 0,1.21902 -0.69781,3.88944 -1.55068,5.93428 -0.85288,2.04483 -2.80517,5.06788 -4.33843,6.71788 -1.53326,1.65 -4.06274,5.25 -5.62106,8 -1.55832,2.75 -5.79353,7.93702 -9.41157,11.5267 -3.61804,3.58969 -9.38185,7.99882 -12.80845,9.79809 -3.42661,1.79926 -9.27661,3.91693 -13,4.70593 -3.7234,0.789 -8.56981,1.41643 -10.76981,1.39427 -2.2,-0.0221 -6.96153,-0.81337 -10.58119,-1.75826 z m 23.09512,-30.77083 c 2.71815,-1.4794 5.69923,-3.52645 6.62462,-4.54899 0.92538,-1.02254 1.49778,-2.00797 1.27199,-2.18984 -0.2258,-0.18187 -5.29583,-1.99812 -11.26673,-4.0361 -5.97091,-2.03799 -14.39842,-5.48643 -18.72781,-7.6632 -4.32938,-2.17677 -8.33159,-3.95777 -8.8938,-3.95777 -0.56262,0 -1.0222,2.29247 -1.0222,5.09887 0,2.80438 0.74019,6.6587 1.64486,8.56515 0.90467,1.90645 3.32885,4.88008 5.38707,6.60806 2.05823,1.72799 5.25554,3.71501 7.10515,4.41562 1.8496,0.70061 5.51659,1.07677 8.14884,0.83593 2.63226,-0.24085 7.00987,-1.64833 9.72801,-3.12773 z m 155.48607,31.21513 c -2.75,-0.67039 -7.7851,-2.70521 -11.18912,-4.52183 -3.60813,-1.92556 -8.8535,-6.07326 -12.57822,-9.94608 -3.51401,-3.65371 -7.66294,-8.89312 -9.21985,-11.64312 -1.5569,-2.75 -4.51287,-6.59317 -6.56882,-8.54037 -2.16513,-2.05061 -4.26881,-5.31176 -4.99933,-7.75 -1.01287,-3.38067 -1.01408,-5.03458 -0.006,-8.39889 0.69032,-2.30409 2.54011,-5.3896 4.11063,-6.85669 1.57053,-1.4671 5.01445,-3.21431 7.65316,-3.8827 2.63871,-0.66838 11.09765,-3.22664 18.79765,-5.68501 7.7,-2.45837 19.08214,-6.90501 25.29365,-9.88141 6.21151,-2.97641 16.11151,-8.69365 22,-12.70499 10.50885,-7.15882 10.82305,-7.2934 17.03315,-7.29664 6.0105,-0.003 6.495,0.1802 9.6896,3.66606 1.8495,2.01815 3.665,5.28065 4.0345,7.25 0.3694,1.96935 0.3885,5.09001 0.042,6.9348 -0.346,1.84479 -2.1221,5.08114 -3.9467,7.19189 l -3.3174,3.83774 1.8354,5.8972 c 1.1146,3.58134 1.8311,8.90568 1.8246,13.5581 -0.01,4.2135 -0.6658,9.81937 -1.4662,12.4575 -0.8005,2.63812 -2.8883,7.48495 -4.6396,10.77072 -1.8911,3.54806 -5.9367,8.57072 -9.9621,12.36813 -4.01523,3.78775 -9.35474,7.60875 -13.09964,9.37419 -3.47691,1.63911 -8.70631,3.47749 -11.62088,4.08529 -2.91457,0.60779 -7.41457,1.06681 -10,1.02003 -2.58543,-0.0468 -6.95078,-0.63354 -9.70078,-1.30392 z m 20.27132,-30.79627 c 2.72375,-1.40169 5.95243,-4.19127 7.65534,-6.61422 2.2693,-3.22882 3.04724,-5.60409 3.39074,-10.35284 0.36,-4.97696 0.17995,-6.04868 -0.93582,-5.57026 -0.75987,0.32582 -6.33158,2.8155 -12.38158,5.53261 -6.05,2.71712 -14.50415,5.9669 -18.787,7.22174 l -7.78701,2.28153 2.78701,2.96982 c 1.53285,1.6334 5.037,4.05847 7.787,5.38906 3.65731,1.76958 6.14947,2.30476 9.28047,1.99292 2.35426,-0.23447 6.40014,-1.51713 8.99085,-2.85036 z M 360.39709,666.86619 c 5.98318,-1.35718 17.00818,-4.54385 24.5,-7.08148 7.49183,-2.53764 18.78754,-7.06607 25.1016,-10.06319 6.31405,-2.99712 14.97655,-7.49915 19.25,-10.0045 4.27344,-2.50535 7.7699,-4.69683 7.7699,-4.86996 0,-0.17313 -1.29214,-4.29287 -2.87142,-9.15496 -1.57929,-4.8621 -3.83043,-13.79018 -5.00256,-19.84018 -1.17212,-6.05 -2.57629,-15.05 -3.12037,-20 -0.54408,-4.95 -0.99293,-17.2125 -0.99745,-27.25 -0.005,-10.0375 -0.23688,-18.25 -0.51637,-18.25 -0.2795,0 -3.61054,2.60486 -7.40233,5.78858 -3.79179,3.18373 -11.10061,8.10822 -16.24183,10.94332 -5.14122,2.83511 -12.75189,6.28842 -16.91259,7.67403 -4.16071,1.3856 -11.53216,3.21111 -16.38099,4.05668 -4.84884,0.84556 -12.69462,1.53474 -17.43508,1.53149 -4.74046,-0.003 -12.89401,-0.65384 -18.11901,-1.44579 -5.225,-0.79194 -13.1,-2.6466 -17.5,-4.12147 -4.4,-1.47487 -10.7,-4.03704 -14,-5.69371 -3.3,-1.65667 -9.375,-5.26996 -13.5,-8.02954 -4.125,-2.75958 -12.03033,-9.5593 -17.5674,-15.1105 -5.53707,-5.5512 -12.24478,-13.40922 -14.90602,-17.46227 -2.66125,-4.05304 -6.33792,-10.80304 -8.17039,-15 -1.9315,-4.42375 -3.33625,-9.31194 -3.34243,-11.63082 -0.006,-2.2 0.77615,-5.56603 1.73779,-7.48007 0.96165,-1.91403 3.2775,-4.50153 5.14633,-5.75 2.15789,-1.44156 4.89488,-2.26857 7.5,-2.26619 2.3385,0.002 5.51492,0.86511 7.38825,2.00727 2.50853,1.52944 4.3418,4.27805 7.74741,11.61565 2.45371,5.28666 6.43801,12.38224 8.85401,15.76795 2.41599,3.38572 7.5574,9.14125 11.42535,12.79008 3.86795,3.64882 10.14639,8.48407 13.95209,10.745 3.8057,2.26093 9.57796,5.047 12.82723,6.19128 3.24928,1.14428 8.83278,2.70236 12.40778,3.4624 3.575,0.76005 11.225,1.3819 17,1.3819 5.775,0 13.48929,-0.63359 17.14286,-1.40799 3.65358,-0.77439 9.70613,-2.63349 13.45012,-4.13132 3.74399,-1.49783 9.5297,-4.30346 12.85714,-6.23474 3.32743,-1.93127 10.13254,-7.60186 15.12246,-12.60131 4.98992,-4.99945 10.83992,-12.01491 13,-15.58991 l 3.92742,-6.5 0.5,-82.5 c 0.45724,-75.44407 0.64657,-82.76771 2.21369,-85.63012 0.94253,-1.72157 2.91163,-4.5538 4.37579,-6.29385 1.46416,-1.74005 4.46292,-4.08244 6.66392,-5.2053 2.20099,-1.12287 6.30689,-2.26365 9.1242,-2.53506 3.97344,-0.3828 11.0664,0.88526 31.6224,5.65336 14.575,3.38077 35.44505,7.91628 46.37789,10.07891 10.93283,2.16263 20.49533,3.93206 21.25,3.93206 1.14356,0 1.37211,-7.91209 1.37211,-47.5 0,-26.125 -0.15627,-47.5 -0.34727,-47.5 -0.191,0 -9.9785,2.46407 -21.75,5.47572 -11.7715,3.01164 -30.40273,7.25611 -41.40273,9.43215 -11,2.17604 -26.075,4.87469 -33.5,5.99699 -7.425,1.1223 -22.275,2.96763 -33,4.10072 -11.19141,1.18237 -30.79116,2.31952 -46,2.66886 -16.23716,0.37296 -34.80005,0.14328 -47.93182,-0.59307 -11.7875,-0.66098 -28.80731,-2.07434 -37.8218,-3.1408 -9.01448,-1.06647 -22.54517,-2.87409 -30.06818,-4.01694 -7.52301,-1.14285 -22.9032,-3.86916 -34.1782,-6.05848 -11.275,-2.18931 -29.65783,-6.2046 -40.85073,-8.92286 -11.19291,-2.71826 -20.5493,-4.94229 -20.79199,-4.94229 -0.24268,0 -0.28321,53.4375 -0.0901,118.75 0.31531,106.61855 0.52649,119.7716 2.06716,128.75 0.94378,5.5 3.09007,15.175 4.76953,21.5 1.67947,6.325 4.65014,15.775 6.60149,21 1.95136,5.225 5.92515,14.225 8.83066,20 2.9055,5.775 7.80421,14.49513 10.886,19.37806 3.08179,4.88294 9.2473,13.53164 13.70112,19.21933 4.45382,5.6877 13.34264,15.41757 19.75294,21.62194 6.41029,6.20437 15.92306,14.47813 21.13947,18.38613 5.21642,3.90801 14.50159,10.112 20.63372,13.78665 6.13212,3.67465 16.0521,8.87599 22.0444,11.55852 5.9923,2.68253 15.6001,6.53525 21.35068,8.5616 5.75058,2.02635 16.3056,5.19572 23.4556,7.04304 7.15,1.84732 13.225,3.37403 13.5,3.39269 0.275,0.0187 5.39533,-1.0765 11.3785,-2.43369 z m -136.3785,-277.2205 c -0.825,-0.30158 -2.55526,-1.50356 -3.84501,-2.67105 -1.28976,-1.1675 -2.97726,-3.33787 -3.75,-4.82306 -0.77275,-1.48519 -1.40499,-4.45081 -1.40499,-6.59028 0,-2.37001 1.24209,-6.37559 3.17889,-10.25145 1.97995,-3.96224 5.84577,-9.0543 10.25,-13.5013 4.00165,-4.04051 9.89266,-8.69338 13.57111,-10.7188 3.575,-1.96846 9.2,-4.36953 12.5,-5.33572 3.95681,-1.15849 9.40531,-1.7567 16,-1.7567 6.63003,0 12.02198,0.59547 16,1.76699 3.3,0.97184 9.15,3.40494 13,5.40688 4.56294,2.37266 9.62933,6.25815 14.55225,11.16031 4.96854,4.94759 8.64623,9.71325 10.75,13.93013 1.75876,3.52535 3.19775,7.9352 3.19775,9.79966 0,1.86447 -0.63224,4.60509 -1.40499,6.09028 -0.77274,1.48519 -2.55805,3.77749 -3.96736,5.094 -1.73456,1.62034 -4.13476,2.54474 -7.42941,2.86131 -3.30591,0.31766 -5.86707,-0.0495 -7.9848,-1.14459 -1.80972,-0.93585 -4.96166,-4.46264 -7.51276,-8.40624 -2.41726,-3.73669 -6.27694,-8.2845 -8.57708,-10.10624 -2.30013,-1.82175 -6.42373,-4.16403 -9.16356,-5.20508 -2.81194,-1.06846 -7.51237,-1.89282 -10.79263,-1.89282 -3.19612,0 -7.91369,0.71641 -10.48347,1.59203 -2.56979,0.87561 -6.90608,3.60034 -9.63619,6.05495 -2.73012,2.45461 -6.38918,6.95414 -8.13125,9.99896 -1.74207,3.04482 -4.57345,6.39341 -6.29195,7.44131 -1.79176,1.09257 -4.83077,1.87319 -7.12455,1.83006 -2.2,-0.0414 -4.675,-0.32195 -5.5,-0.62354 z"
       id="path1" /></g></svg>
