<?xml version="1.0" encoding="UTF-8" standalone="no"?>
<!-- Created with Inkscape (http://www.inkscape.org/) -->

<svg
   version="1.1"
   id="svg1"
   width="1024"
   height="1024"
   viewBox="0 0 1024 1024"
   xml:space="preserve"
   xmlns="http://www.w3.org/2000/svg"
   xmlns:svg="http://www.w3.org/2000/svg"><defs
     id="defs1" /><g
     id="g1"><path
       style="fill:#000000"
       d="m 230.44709,803.36091 c -1.20544,-0.48555 -2.94596,-2.03396 -3.86783,-3.44091 -0.92186,-1.40694 -1.64463,-4.24365 -1.60614,-6.30379 0.0385,-2.06013 6.42175,-25.1207 14.18503,-51.2457 7.76328,-26.125 18.83214,-63.475 24.59748,-83 5.76534,-19.525 11.6372,-39.325 13.04858,-44 l 2.56613,-8.5 150.0592,-150.5 c 82.53255,-82.775 156.50365,-157.02132 164.38025,-164.99183 l 14.3211,-14.49183 15.5725,15.49183 c 8.5649,8.52051 39.0236,39.2566 67.686,68.30243 l 52.1135,52.81059 -159.0496,159.18941 c -87.4773,87.55417 -160.99838,161.36145 -163.38019,164.01618 -2.38182,2.65472 -5.53551,5.44987 -7.00821,6.21144 -1.4727,0.76156 -13.87104,5.26865 -27.55187,10.01575 -13.68083,4.7471 -41.07423,14.16907 -60.87423,20.9377 -19.8,6.76864 -47.97883,16.402 -62.61962,21.40747 -14.64079,5.00547 -27.46579,9.07234 -28.5,9.03747 -1.03421,-0.0349 -2.86665,-0.46065 -4.07208,-0.94621 z m 127.56073,-67.19943 c 21.65297,-7.28628 39.58234,-13.80365 39.84305,-14.48303 0.2607,-0.67939 -1.25536,-7.41153 -3.36904,-14.96031 l -3.84304,-13.72506 -15.34267,-5.56129 c -11.42054,-4.13962 -15.79585,-6.20037 -17.1154,-8.06128 -0.975,-1.375 -3.6749,-8.47938 -5.99977,-15.78752 -3.05757,-9.61131 -4.82397,-13.66034 -6.3846,-14.63508 -1.18666,-0.74117 -12.19908,-4.82027 -24.47204,-9.06467 -12.27296,-4.24441 -22.46923,-7.55862 -22.65838,-7.36492 -0.18914,0.19371 -5.29653,17.45219 -11.34975,38.35219 l -11.00585,38 20.15508,20.25 c 11.0853,11.1375 20.6092,20.25872 21.16423,20.26938 0.55503,0.0107 18.72521,-5.94213 40.37818,-13.22841 z m 19.73093,-114.69114 c 2.14502,-1.59509 61.59715,-60.65759 132.11584,-131.25 90.9641,-91.05919 128.6615,-129.43002 129.75,-132.06771 0.8438,-2.04484 1.5342,-4.45183 1.5342,-5.34887 0,-0.89705 -0.6823,-3.06877 -1.5162,-4.82606 -0.8338,-1.75728 -2.8158,-3.96279 -4.4043,-4.90113 -1.5884,-0.93833 -4.5365,-1.70606 -6.5512,-1.70606 -3.1586,0 -4.7442,0.99833 -11.5141,7.25 -4.3181,3.9875 -63.212,62.825 -130.8753,130.75 -67.66325,67.925 -124.009,124.77106 -125.21275,126.32458 -1.20375,1.55352 -2.41173,4.80386 -2.6844,7.22299 -0.45124,4.00333 -0.17896,4.71522 3.03124,7.92542 2.97922,2.97922 4.21814,3.52701 7.97697,3.52701 3.34719,0 5.41646,-0.71871 8.35,-2.90017 z M 694.60929,327.35831 c -36.8338,-36.85671 -67.1189,-67.45178 -67.3002,-67.98905 -0.1813,-0.53727 8.1437,-9.58693 18.5,-20.11034 10.3563,-10.52342 21.0797,-20.5862 23.8297,-22.36175 2.75,-1.77554 7.7,-4.28104 11,-5.56777 5.1591,-2.01162 7.822,-2.34648 19,-2.38918 11.594,-0.0443 13.7761,0.23306 20.1761,2.56442 3.9469,1.43775 10.2469,4.66537 14,7.17248 4.4133,2.94807 17.4547,15.2686 36.9165,34.8759 20.9036,21.05978 31.0343,31.99696 33.1765,35.81749 1.696,3.025 4.2565,8.9978 5.6897,13.27288 2.0569,6.13495 2.6065,9.71726 2.6084,17 0,5.10499 -0.6812,11.80951 -1.5277,15.00762 -0.8415,3.17927 -2.4937,7.67927 -3.6716,10 -1.1779,2.32072 -3.5254,6.2445 -5.2166,8.7195 -1.6913,2.475 -11.1482,12.7125 -21.0153,22.75 -9.8672,10.0375 -18.2226,18.25 -18.5677,18.25 -0.3451,0 -30.7641,-30.15549 -67.5978,-67.0122 z"
       id="path1" /></g></svg>
